# https://github.com/mikedh/trimesh

o geometry_0
v 0.00000000 0.00000000 -0.13000000 0.36078431 0.40784314 0.45882353
v 1.58000000 0.00000000 -0.13000000 0.36078431 0.40784314 0.45882353
v 1.58000000 0.00000000 0.13000000 0.36078431 0.40784314 0.45882353
v 0.00000000 0.00000000 0.13000000 0.36078431 0.40784314 0.45882353
v 1.52616281 0.40893409 -0.13000000 0.36078431 0.40784314 0.45882353
v 1.52616281 0.40893409 0.13000000 0.36078431 0.40784314 0.45882353
v 1.36832014 0.79000000 -0.13000000 0.36078431 0.40784314 0.45882353
v 1.36832014 0.79000000 0.13000000 0.36078431 0.40784314 0.45882353
v 1.11722871 1.11722871 -0.13000000 0.36078431 0.40784314 0.45882353
v 1.11722871 1.11722871 0.13000000 0.36078431 0.40784314 0.45882353
v 0.79000000 1.36832014 -0.13000000 0.36078431 0.40784314 0.45882353
v 0.79000000 1.36832014 0.13000000 0.36078431 0.40784314 0.45882353
v 0.40893409 1.52616281 -0.13000000 0.36078431 0.40784314 0.45882353
v 0.40893409 1.52616281 0.13000000 0.36078431 0.40784314 0.45882353
v 0.00000000 1.58000000 -0.13000000 0.36078431 0.40784314 0.45882353
v 0.00000000 1.58000000 0.13000000 0.36078431 0.40784314 0.45882353
v -0.40893409 1.52616281 -0.13000000 0.36078431 0.40784314 0.45882353
v -0.40893409 1.52616281 0.13000000 0.36078431 0.40784314 0.45882353
v -0.79000000 1.36832014 -0.13000000 0.36078431 0.40784314 0.45882353
v -0.79000000 1.36832014 0.13000000 0.36078431 0.40784314 0.45882353
v -1.11722871 1.11722871 -0.13000000 0.36078431 0.40784314 0.45882353
v -1.11722871 1.11722871 0.13000000 0.36078431 0.40784314 0.45882353
v -1.36832014 0.79000000 -0.13000000 0.36078431 0.40784314 0.45882353
v -1.36832014 0.79000000 0.13000000 0.36078431 0.40784314 0.45882353
v -1.52616281 0.40893409 -0.13000000 0.36078431 0.40784314 0.45882353
v -1.52616281 0.40893409 0.13000000 0.36078431 0.40784314 0.45882353
v -1.58000000 0.00000000 -0.13000000 0.36078431 0.40784314 0.45882353
v -1.58000000 0.00000000 0.13000000 0.36078431 0.40784314 0.45882353
v -1.52616281 -0.40893409 -0.13000000 0.36078431 0.40784314 0.45882353
v -1.52616281 -0.40893409 0.13000000 0.36078431 0.40784314 0.45882353
v -1.36832014 -0.79000000 -0.13000000 0.36078431 0.40784314 0.45882353
v -1.36832014 -0.79000000 0.13000000 0.36078431 0.40784314 0.45882353
v -1.11722871 -1.11722871 -0.13000000 0.36078431 0.40784314 0.45882353
v -1.11722871 -1.11722871 0.13000000 0.36078431 0.40784314 0.45882353
v -0.79000000 -1.36832014 -0.13000000 0.36078431 0.40784314 0.45882353
v -0.79000000 -1.36832014 0.13000000 0.36078431 0.40784314 0.45882353
v -0.40893409 -1.52616281 -0.13000000 0.36078431 0.40784314 0.45882353
v -0.40893409 -1.52616281 0.13000000 0.36078431 0.40784314 0.45882353
v -0.00000000 -1.58000000 -0.13000000 0.36078431 0.40784314 0.45882353
v -0.00000000 -1.58000000 0.13000000 0.36078431 0.40784314 0.45882353
v 0.40893409 -1.52616281 -0.13000000 0.36078431 0.40784314 0.45882353
v 0.40893409 -1.52616281 0.13000000 0.36078431 0.40784314 0.45882353
v 0.79000000 -1.36832014 -0.13000000 0.36078431 0.40784314 0.45882353
v 0.79000000 -1.36832014 0.13000000 0.36078431 0.40784314 0.45882353
v 1.11722871 -1.11722871 -0.13000000 0.36078431 0.40784314 0.45882353
v 1.11722871 -1.11722871 0.13000000 0.36078431 0.40784314 0.45882353
v 1.36832014 -0.79000000 -0.13000000 0.36078431 0.40784314 0.45882353
v 1.36832014 -0.79000000 0.13000000 0.36078431 0.40784314 0.45882353
v 1.52616281 -0.40893409 -0.13000000 0.36078431 0.40784314 0.45882353
v 1.52616281 -0.40893409 0.13000000 0.36078431 0.40784314 0.45882353
f 2 1 5
f 2 5 3
f 3 5 6
f 3 6 4
f 5 1 7
f 5 7 6
f 6 7 8
f 6 8 4
f 7 1 9
f 7 9 8
f 8 9 10
f 8 10 4
f 9 1 11
f 9 11 10
f 10 11 12
f 10 12 4
f 11 1 13
f 11 13 12
f 12 13 14
f 12 14 4
f 13 1 15
f 13 15 14
f 14 15 16
f 14 16 4
f 15 1 17
f 15 17 16
f 16 17 18
f 16 18 4
f 17 1 19
f 17 19 18
f 18 19 20
f 18 20 4
f 19 1 21
f 19 21 20
f 20 21 22
f 20 22 4
f 21 1 23
f 21 23 22
f 22 23 24
f 22 24 4
f 23 1 25
f 23 25 24
f 24 25 26
f 24 26 4
f 25 1 27
f 25 27 26
f 26 27 28
f 26 28 4
f 27 1 29
f 27 29 28
f 28 29 30
f 28 30 4
f 29 1 31
f 29 31 30
f 30 31 32
f 30 32 4
f 31 1 33
f 31 33 32
f 32 33 34
f 32 34 4
f 33 1 35
f 33 35 34
f 34 35 36
f 34 36 4
f 35 1 37
f 35 37 36
f 36 37 38
f 36 38 4
f 37 1 39
f 37 39 38
f 38 39 40
f 38 40 4
f 39 1 41
f 39 41 40
f 40 41 42
f 40 42 4
f 41 1 43
f 41 43 42
f 42 43 44
f 42 44 4
f 43 1 45
f 43 45 44
f 44 45 46
f 44 46 4
f 45 1 47
f 45 47 46
f 46 47 48
f 46 48 4
f 47 1 49
f 47 49 48
f 48 49 50
f 48 50 4
f 49 1 2
f 49 2 50
f 50 2 3
f 50 3 4

o geometry_1
v 0.00000000 0.00000000 -0.13000000 0.18823529 0.22352941 0.25882353
v 1.34000000 0.00000000 -0.13000000 0.18823529 0.22352941 0.25882353
v 1.34000000 0.00000000 0.17000000 0.18823529 0.22352941 0.25882353
v 0.00000000 0.00000000 0.17000000 0.18823529 0.22352941 0.25882353
v 1.29434061 0.34681752 -0.13000000 0.18823529 0.22352941 0.25882353
v 1.29434061 0.34681752 0.17000000 0.18823529 0.22352941 0.25882353
v 1.16047404 0.67000000 -0.13000000 0.18823529 0.22352941 0.25882353
v 1.16047404 0.67000000 0.17000000 0.18823529 0.22352941 0.25882353
v 0.94752309 0.94752309 -0.13000000 0.18823529 0.22352941 0.25882353
v 0.94752309 0.94752309 0.17000000 0.18823529 0.22352941 0.25882353
v 0.67000000 1.16047404 -0.13000000 0.18823529 0.22352941 0.25882353
v 0.67000000 1.16047404 0.17000000 0.18823529 0.22352941 0.25882353
v 0.34681752 1.29434061 -0.13000000 0.18823529 0.22352941 0.25882353
v 0.34681752 1.29434061 0.17000000 0.18823529 0.22352941 0.25882353
v 0.00000000 1.34000000 -0.13000000 0.18823529 0.22352941 0.25882353
v 0.00000000 1.34000000 0.17000000 0.18823529 0.22352941 0.25882353
v -0.34681752 1.29434061 -0.13000000 0.18823529 0.22352941 0.25882353
v -0.34681752 1.29434061 0.17000000 0.18823529 0.22352941 0.25882353
v -0.67000000 1.16047404 -0.13000000 0.18823529 0.22352941 0.25882353
v -0.67000000 1.16047404 0.17000000 0.18823529 0.22352941 0.25882353
v -0.94752309 0.94752309 -0.13000000 0.18823529 0.22352941 0.25882353
v -0.94752309 0.94752309 0.17000000 0.18823529 0.22352941 0.25882353
v -1.16047404 0.67000000 -0.13000000 0.18823529 0.22352941 0.25882353
v -1.16047404 0.67000000 0.17000000 0.18823529 0.22352941 0.25882353
v -1.29434061 0.34681752 -0.13000000 0.18823529 0.22352941 0.25882353
v -1.29434061 0.34681752 0.17000000 0.18823529 0.22352941 0.25882353
v -1.34000000 0.00000000 -0.13000000 0.18823529 0.22352941 0.25882353
v -1.34000000 0.00000000 0.17000000 0.18823529 0.22352941 0.25882353
v -1.29434061 -0.34681752 -0.13000000 0.18823529 0.22352941 0.25882353
v -1.29434061 -0.34681752 0.17000000 0.18823529 0.22352941 0.25882353
v -1.16047404 -0.67000000 -0.13000000 0.18823529 0.22352941 0.25882353
v -1.16047404 -0.67000000 0.17000000 0.18823529 0.22352941 0.25882353
v -0.94752309 -0.94752309 -0.13000000 0.18823529 0.22352941 0.25882353
v -0.94752309 -0.94752309 0.17000000 0.18823529 0.22352941 0.25882353
v -0.67000000 -1.16047404 -0.13000000 0.18823529 0.22352941 0.25882353
v -0.67000000 -1.16047404 0.17000000 0.18823529 0.22352941 0.25882353
v -0.34681752 -1.29434061 -0.13000000 0.18823529 0.22352941 0.25882353
v -0.34681752 -1.29434061 0.17000000 0.18823529 0.22352941 0.25882353
v -0.00000000 -1.34000000 -0.13000000 0.18823529 0.22352941 0.25882353
v -0.00000000 -1.34000000 0.17000000 0.18823529 0.22352941 0.25882353
v 0.34681752 -1.29434061 -0.13000000 0.18823529 0.22352941 0.25882353
v 0.34681752 -1.29434061 0.17000000 0.18823529 0.22352941 0.25882353
v 0.67000000 -1.16047404 -0.13000000 0.18823529 0.22352941 0.25882353
v 0.67000000 -1.16047404 0.17000000 0.18823529 0.22352941 0.25882353
v 0.94752309 -0.94752309 -0.13000000 0.18823529 0.22352941 0.25882353
v 0.94752309 -0.94752309 0.17000000 0.18823529 0.22352941 0.25882353
v 1.16047404 -0.67000000 -0.13000000 0.18823529 0.22352941 0.25882353
v 1.16047404 -0.67000000 0.17000000 0.18823529 0.22352941 0.25882353
v 1.29434061 -0.34681752 -0.13000000 0.18823529 0.22352941 0.25882353
v 1.29434061 -0.34681752 0.17000000 0.18823529 0.22352941 0.25882353
f 52 51 55
f 52 55 53
f 53 55 56
f 53 56 54
f 55 51 57
f 55 57 56
f 56 57 58
f 56 58 54
f 57 51 59
f 57 59 58
f 58 59 60
f 58 60 54
f 59 51 61
f 59 61 60
f 60 61 62
f 60 62 54
f 61 51 63
f 61 63 62
f 62 63 64
f 62 64 54
f 63 51 65
f 63 65 64
f 64 65 66
f 64 66 54
f 65 51 67
f 65 67 66
f 66 67 68
f 66 68 54
f 67 51 69
f 67 69 68
f 68 69 70
f 68 70 54
f 69 51 71
f 69 71 70
f 70 71 72
f 70 72 54
f 71 51 73
f 71 73 72
f 72 73 74
f 72 74 54
f 73 51 75
f 73 75 74
f 74 75 76
f 74 76 54
f 75 51 77
f 75 77 76
f 76 77 78
f 76 78 54
f 77 51 79
f 77 79 78
f 78 79 80
f 78 80 54
f 79 51 81
f 79 81 80
f 80 81 82
f 80 82 54
f 81 51 83
f 81 83 82
f 82 83 84
f 82 84 54
f 83 51 85
f 83 85 84
f 84 85 86
f 84 86 54
f 85 51 87
f 85 87 86
f 86 87 88
f 86 88 54
f 87 51 89
f 87 89 88
f 88 89 90
f 88 90 54
f 89 51 91
f 89 91 90
f 90 91 92
f 90 92 54
f 91 51 93
f 91 93 92
f 92 93 94
f 92 94 54
f 93 51 95
f 93 95 94
f 94 95 96
f 94 96 54
f 95 51 97
f 95 97 96
f 96 97 98
f 96 98 54
f 97 51 99
f 97 99 98
f 98 99 100
f 98 100 54
f 99 51 52
f 99 52 100
f 100 52 53
f 100 53 54

o geometry_2
v 0.00000000 0.00000000 -0.12000000 0.52941176 0.58823529 0.64705882
v 0.68000000 0.00000000 -0.12000000 0.52941176 0.58823529 0.64705882
v 0.68000000 0.00000000 0.26000000 0.52941176 0.58823529 0.64705882
v 0.00000000 0.00000000 0.26000000 0.52941176 0.58823529 0.64705882
v 0.64671843 0.21013156 -0.12000000 0.52941176 0.58823529 0.64705882
v 0.64671843 0.21013156 0.26000000 0.52941176 0.58823529 0.64705882
v 0.55013156 0.39969397 -0.12000000 0.52941176 0.58823529 0.64705882
v 0.55013156 0.39969397 0.26000000 0.52941176 0.58823529 0.64705882
v 0.39969397 0.55013156 -0.12000000 0.52941176 0.58823529 0.64705882
v 0.39969397 0.55013156 0.26000000 0.52941176 0.58823529 0.64705882
v 0.21013156 0.64671843 -0.12000000 0.52941176 0.58823529 0.64705882
v 0.21013156 0.64671843 0.26000000 0.52941176 0.58823529 0.64705882
v 0.00000000 0.68000000 -0.12000000 0.52941176 0.58823529 0.64705882
v 0.00000000 0.68000000 0.26000000 0.52941176 0.58823529 0.64705882
v -0.21013156 0.64671843 -0.12000000 0.52941176 0.58823529 0.64705882
v -0.21013156 0.64671843 0.26000000 0.52941176 0.58823529 0.64705882
v -0.39969397 0.55013156 -0.12000000 0.52941176 0.58823529 0.64705882
v -0.39969397 0.55013156 0.26000000 0.52941176 0.58823529 0.64705882
v -0.55013156 0.39969397 -0.12000000 0.52941176 0.58823529 0.64705882
v -0.55013156 0.39969397 0.26000000 0.52941176 0.58823529 0.64705882
v -0.64671843 0.21013156 -0.12000000 0.52941176 0.58823529 0.64705882
v -0.64671843 0.21013156 0.26000000 0.52941176 0.58823529 0.64705882
v -0.68000000 0.00000000 -0.12000000 0.52941176 0.58823529 0.64705882
v -0.68000000 0.00000000 0.26000000 0.52941176 0.58823529 0.64705882
v -0.64671843 -0.21013156 -0.12000000 0.52941176 0.58823529 0.64705882
v -0.64671843 -0.21013156 0.26000000 0.52941176 0.58823529 0.64705882
v -0.55013156 -0.39969397 -0.12000000 0.52941176 0.58823529 0.64705882
v -0.55013156 -0.39969397 0.26000000 0.52941176 0.58823529 0.64705882
v -0.39969397 -0.55013156 -0.12000000 0.52941176 0.58823529 0.64705882
v -0.39969397 -0.55013156 0.26000000 0.52941176 0.58823529 0.64705882
v -0.21013156 -0.64671843 -0.12000000 0.52941176 0.58823529 0.64705882
v -0.21013156 -0.64671843 0.26000000 0.52941176 0.58823529 0.64705882
v -0.00000000 -0.68000000 -0.12000000 0.52941176 0.58823529 0.64705882
v -0.00000000 -0.68000000 0.26000000 0.52941176 0.58823529 0.64705882
v 0.21013156 -0.64671843 -0.12000000 0.52941176 0.58823529 0.64705882
v 0.21013156 -0.64671843 0.26000000 0.52941176 0.58823529 0.64705882
v 0.39969397 -0.55013156 -0.12000000 0.52941176 0.58823529 0.64705882
v 0.39969397 -0.55013156 0.26000000 0.52941176 0.58823529 0.64705882
v 0.55013156 -0.39969397 -0.12000000 0.52941176 0.58823529 0.64705882
v 0.55013156 -0.39969397 0.26000000 0.52941176 0.58823529 0.64705882
v 0.64671843 -0.21013156 -0.12000000 0.52941176 0.58823529 0.64705882
v 0.64671843 -0.21013156 0.26000000 0.52941176 0.58823529 0.64705882
f 102 101 105
f 102 105 103
f 103 105 106
f 103 106 104
f 105 101 107
f 105 107 106
f 106 107 108
f 106 108 104
f 107 101 109
f 107 109 108
f 108 109 110
f 108 110 104
f 109 101 111
f 109 111 110
f 110 111 112
f 110 112 104
f 111 101 113
f 111 113 112
f 112 113 114
f 112 114 104
f 113 101 115
f 113 115 114
f 114 115 116
f 114 116 104
f 115 101 117
f 115 117 116
f 116 117 118
f 116 118 104
f 117 101 119
f 117 119 118
f 118 119 120
f 118 120 104
f 119 101 121
f 119 121 120
f 120 121 122
f 120 122 104
f 121 101 123
f 121 123 122
f 122 123 124
f 122 124 104
f 123 101 125
f 123 125 124
f 124 125 126
f 124 126 104
f 125 101 127
f 125 127 126
f 126 127 128
f 126 128 104
f 127 101 129
f 127 129 128
f 128 129 130
f 128 130 104
f 129 101 131
f 129 131 130
f 130 131 132
f 130 132 104
f 131 101 133
f 131 133 132
f 132 133 134
f 132 134 104
f 133 101 135
f 133 135 134
f 134 135 136
f 134 136 104
f 135 101 137
f 135 137 136
f 136 137 138
f 136 138 104
f 137 101 139
f 137 139 138
f 138 139 140
f 138 140 104
f 139 101 141
f 139 141 140
f 140 141 142
f 140 142 104
f 141 101 102
f 141 102 142
f 142 102 103
f 142 103 104

o geometry_3
v 0.00000000 0.00000000 -0.11000000 0.36078431 0.40784314 0.45882353
v 0.43000000 0.00000000 -0.11000000 0.36078431 0.40784314 0.45882353
v 0.43000000 0.00000000 0.35000000 0.36078431 0.40784314 0.45882353
v 0.00000000 0.00000000 0.35000000 0.36078431 0.40784314 0.45882353
v 0.39726820 0.16455388 -0.11000000 0.36078431 0.40784314 0.45882353
v 0.39726820 0.16455388 0.35000000 0.36078431 0.40784314 0.45882353
v 0.30405592 0.30405592 -0.11000000 0.36078431 0.40784314 0.45882353
v 0.30405592 0.30405592 0.35000000 0.36078431 0.40784314 0.45882353
v 0.16455388 0.39726820 -0.11000000 0.36078431 0.40784314 0.45882353
v 0.16455388 0.39726820 0.35000000 0.36078431 0.40784314 0.45882353
v 0.00000000 0.43000000 -0.11000000 0.36078431 0.40784314 0.45882353
v 0.00000000 0.43000000 0.35000000 0.36078431 0.40784314 0.45882353
v -0.16455388 0.39726820 -0.11000000 0.36078431 0.40784314 0.45882353
v -0.16455388 0.39726820 0.35000000 0.36078431 0.40784314 0.45882353
v -0.30405592 0.30405592 -0.11000000 0.36078431 0.40784314 0.45882353
v -0.30405592 0.30405592 0.35000000 0.36078431 0.40784314 0.45882353
v -0.39726820 0.16455388 -0.11000000 0.36078431 0.40784314 0.45882353
v -0.39726820 0.16455388 0.35000000 0.36078431 0.40784314 0.45882353
v -0.43000000 0.00000000 -0.11000000 0.36078431 0.40784314 0.45882353
v -0.43000000 0.00000000 0.35000000 0.36078431 0.40784314 0.45882353
v -0.39726820 -0.16455388 -0.11000000 0.36078431 0.40784314 0.45882353
v -0.39726820 -0.16455388 0.35000000 0.36078431 0.40784314 0.45882353
v -0.30405592 -0.30405592 -0.11000000 0.36078431 0.40784314 0.45882353
v -0.30405592 -0.30405592 0.35000000 0.36078431 0.40784314 0.45882353
v -0.16455388 -0.39726820 -0.11000000 0.36078431 0.40784314 0.45882353
v -0.16455388 -0.39726820 0.35000000 0.36078431 0.40784314 0.45882353
v -0.00000000 -0.43000000 -0.11000000 0.36078431 0.40784314 0.45882353
v -0.00000000 -0.43000000 0.35000000 0.36078431 0.40784314 0.45882353
v 0.16455388 -0.39726820 -0.11000000 0.36078431 0.40784314 0.45882353
v 0.16455388 -0.39726820 0.35000000 0.36078431 0.40784314 0.45882353
v 0.30405592 -0.30405592 -0.11000000 0.36078431 0.40784314 0.45882353
v 0.30405592 -0.30405592 0.35000000 0.36078431 0.40784314 0.45882353
v 0.39726820 -0.16455388 -0.11000000 0.36078431 0.40784314 0.45882353
v 0.39726820 -0.16455388 0.35000000 0.36078431 0.40784314 0.45882353
f 144 143 147
f 144 147 145
f 145 147 148
f 145 148 146
f 147 143 149
f 147 149 148
f 148 149 150
f 148 150 146
f 149 143 151
f 149 151 150
f 150 151 152
f 150 152 146
f 151 143 153
f 151 153 152
f 152 153 154
f 152 154 146
f 153 143 155
f 153 155 154
f 154 155 156
f 154 156 146
f 155 143 157
f 155 157 156
f 156 157 158
f 156 158 146
f 157 143 159
f 157 159 158
f 158 159 160
f 158 160 146
f 159 143 161
f 159 161 160
f 160 161 162
f 160 162 146
f 161 143 163
f 161 163 162
f 162 163 164
f 162 164 146
f 163 143 165
f 163 165 164
f 164 165 166
f 164 166 146
f 165 143 167
f 165 167 166
f 166 167 168
f 166 168 146
f 167 143 169
f 167 169 168
f 168 169 170
f 168 170 146
f 169 143 171
f 169 171 170
f 170 171 172
f 170 172 146
f 171 143 173
f 171 173 172
f 172 173 174
f 172 174 146
f 173 143 175
f 173 175 174
f 174 175 176
f 174 176 146
f 175 143 144
f 175 144 176
f 176 144 145
f 176 145 146

o geometry_4
v 0.00000000 0.00000000 -0.11000000 0.18823529 0.22352941 0.25882353
v 0.20000000 0.00000000 -0.11000000 0.18823529 0.22352941 0.25882353
v 0.20000000 0.00000000 0.41000000 0.18823529 0.22352941 0.25882353
v 0.00000000 0.00000000 0.41000000 0.18823529 0.22352941 0.25882353
v 0.16180340 0.11755705 -0.11000000 0.18823529 0.22352941 0.25882353
v 0.16180340 0.11755705 0.41000000 0.18823529 0.22352941 0.25882353
v 0.06180340 0.19021130 -0.11000000 0.18823529 0.22352941 0.25882353
v 0.06180340 0.19021130 0.41000000 0.18823529 0.22352941 0.25882353
v -0.06180340 0.19021130 -0.11000000 0.18823529 0.22352941 0.25882353
v -0.06180340 0.19021130 0.41000000 0.18823529 0.22352941 0.25882353
v -0.16180340 0.11755705 -0.11000000 0.18823529 0.22352941 0.25882353
v -0.16180340 0.11755705 0.41000000 0.18823529 0.22352941 0.25882353
v -0.20000000 0.00000000 -0.11000000 0.18823529 0.22352941 0.25882353
v -0.20000000 0.00000000 0.41000000 0.18823529 0.22352941 0.25882353
v -0.16180340 -0.11755705 -0.11000000 0.18823529 0.22352941 0.25882353
v -0.16180340 -0.11755705 0.41000000 0.18823529 0.22352941 0.25882353
v -0.06180340 -0.19021130 -0.11000000 0.18823529 0.22352941 0.25882353
v -0.06180340 -0.19021130 0.41000000 0.18823529 0.22352941 0.25882353
v 0.06180340 -0.19021130 -0.11000000 0.18823529 0.22352941 0.25882353
v 0.06180340 -0.19021130 0.41000000 0.18823529 0.22352941 0.25882353
v 0.16180340 -0.11755705 -0.11000000 0.18823529 0.22352941 0.25882353
v 0.16180340 -0.11755705 0.41000000 0.18823529 0.22352941 0.25882353
f 178 177 181
f 178 181 179
f 179 181 182
f 179 182 180
f 181 177 183
f 181 183 182
f 182 183 184
f 182 184 180
f 183 177 185
f 183 185 184
f 184 185 186
f 184 186 180
f 185 177 187
f 185 187 186
f 186 187 188
f 186 188 180
f 187 177 189
f 187 189 188
f 188 189 190
f 188 190 180
f 189 177 191
f 189 191 190
f 190 191 192
f 190 192 180
f 191 177 193
f 191 193 192
f 192 193 194
f 192 194 180
f 193 177 195
f 193 195 194
f 194 195 196
f 194 196 180
f 195 177 197
f 195 197 196
f 196 197 198
f 196 198 180
f 197 177 178
f 197 178 198
f 198 178 179
f 198 179 180

o geometry_5
v 1.52000000 -0.21000000 -0.15000000 0.52941176 0.58823529 0.64705882
v 1.52000000 0.21000000 -0.15000000 0.52941176 0.58823529 0.64705882
v 2.12000000 0.07500000 -0.15000000 0.52941176 0.58823529 0.64705882
v 2.12000000 -0.07500000 -0.15000000 0.52941176 0.58823529 0.64705882
v 1.52000000 -0.21000000 0.15000000 0.52941176 0.58823529 0.64705882
v 1.52000000 0.21000000 0.15000000 0.52941176 0.58823529 0.64705882
v 2.12000000 0.07500000 0.15000000 0.52941176 0.58823529 0.64705882
v 2.12000000 -0.07500000 0.15000000 0.52941176 0.58823529 0.64705882
f 199 200 201
f 199 201 202
f 203 205 204
f 203 206 205
f 199 203 204
f 199 204 200
f 200 204 205
f 200 205 201
f 201 205 206
f 201 206 202
f 202 206 203
f 202 203 199

o geometry_6
v 1.50015701 0.32253517 -0.15000000 0.52941176 0.58823529 0.64705882
v 1.35650855 0.71720607 -0.15000000 0.52941176 0.58823529 0.64705882
v 1.96649685 0.79555965 -0.15000000 0.52941176 0.58823529 0.64705882
v 2.01779987 0.65460576 -0.15000000 0.52941176 0.58823529 0.64705882
v 1.50015701 0.32253517 0.15000000 0.52941176 0.58823529 0.64705882
v 1.35650855 0.71720607 0.15000000 0.52941176 0.58823529 0.64705882
v 1.96649685 0.79555965 0.15000000 0.52941176 0.58823529 0.64705882
v 2.01779987 0.65460576 0.15000000 0.52941176 0.58823529 0.64705882
f 207 208 209
f 207 209 210
f 211 213 212
f 211 214 213
f 207 211 212
f 207 212 208
f 208 212 213
f 208 213 209
f 209 213 214
f 209 214 210
f 210 214 211
f 210 211 207

o geometry_7
v 1.29937295 0.81616783 -0.15000000 0.52941176 0.58823529 0.64705882
v 1.02940216 1.13790650 -0.15000000 0.52941176 0.58823529 0.64705882
v 1.57580515 1.42016307 -0.15000000 0.52941176 0.58823529 0.64705882
v 1.67222329 1.30525640 -0.15000000 0.52941176 0.58823529 0.64705882
v 1.29937295 0.81616783 0.15000000 0.52941176 0.58823529 0.64705882
v 1.02940216 1.13790650 0.15000000 0.52941176 0.58823529 0.64705882
v 1.57580515 1.42016307 0.15000000 0.52941176 0.58823529 0.64705882
v 1.67222329 1.30525640 0.15000000 0.52941176 0.58823529 0.64705882
f 215 216 217
f 215 217 218
f 219 221 220
f 219 222 221
f 215 219 220
f 215 220 216
f 216 220 221
f 216 221 217
f 217 221 222
f 217 222 218
f 218 222 219
f 218 219 215

o geometry_8
v 0.94186533 1.21135861 -0.15000000 0.52941176 0.58823529 0.64705882
v 0.57813467 1.42135861 -0.15000000 0.52941176 0.58823529 0.64705882
v 0.99504809 1.87347386 -0.15000000 0.52941176 0.58823529 0.64705882
v 1.12495191 1.79847386 -0.15000000 0.52941176 0.58823529 0.64705882
v 0.94186533 1.21135861 0.15000000 0.52941176 0.58823529 0.64705882
v 0.57813467 1.42135861 0.15000000 0.52941176 0.58823529 0.64705882
v 0.99504809 1.87347386 0.15000000 0.52941176 0.58823529 0.64705882
v 1.12495191 1.79847386 0.15000000 0.52941176 0.58823529 0.64705882
f 223 224 225
f 223 225 226
f 227 229 228
f 227 230 229
f 223 227 228
f 223 228 224
f 224 228 229
f 224 229 225
f 225 229 230
f 225 230 226
f 226 230 227
f 226 227 223

o geometry_9
v 0.47075486 1.46044167 -0.15000000 0.52941176 0.58823529 0.64705882
v 0.05713560 1.53337390 -0.15000000 0.52941176 0.58823529 0.64705882
v 0.29427356 2.10081605 -0.15000000 0.52941176 0.58823529 0.64705882
v 0.44199472 2.07476882 -0.15000000 0.52941176 0.58823529 0.64705882
v 0.47075486 1.46044167 0.15000000 0.52941176 0.58823529 0.64705882
v 0.05713560 1.53337390 0.15000000 0.52941176 0.58823529 0.64705882
v 0.29427356 2.10081605 0.15000000 0.52941176 0.58823529 0.64705882
v 0.44199472 2.07476882 0.15000000 0.52941176 0.58823529 0.64705882
f 231 232 233
f 231 233 234
f 235 237 236
f 235 238 237
f 231 235 236
f 231 236 232
f 232 236 237
f 232 237 233
f 233 237 238
f 233 238 234
f 234 238 235
f 234 235 231

o geometry_10
v -0.05713560 1.53337390 -0.15000000 0.52941176 0.58823529 0.64705882
v -0.47075486 1.46044167 -0.15000000 0.52941176 0.58823529 0.64705882
v -0.44199472 2.07476882 -0.15000000 0.52941176 0.58823529 0.64705882
v -0.29427356 2.10081605 -0.15000000 0.52941176 0.58823529 0.64705882
v -0.05713560 1.53337390 0.15000000 0.52941176 0.58823529 0.64705882
v -0.47075486 1.46044167 0.15000000 0.52941176 0.58823529 0.64705882
v -0.44199472 2.07476882 0.15000000 0.52941176 0.58823529 0.64705882
v -0.29427356 2.10081605 0.15000000 0.52941176 0.58823529 0.64705882
f 239 240 241
f 239 241 242
f 243 245 244
f 243 246 245
f 239 243 244
f 239 244 240
f 240 244 245
f 240 245 241
f 241 245 246
f 241 246 242
f 242 246 243
f 242 243 239

o geometry_11
v -0.57813467 1.42135861 -0.15000000 0.52941176 0.58823529 0.64705882
v -0.94186533 1.21135861 -0.15000000 0.52941176 0.58823529 0.64705882
v -1.12495191 1.79847386 -0.15000000 0.52941176 0.58823529 0.64705882
v -0.99504809 1.87347386 -0.15000000 0.52941176 0.58823529 0.64705882
v -0.57813467 1.42135861 0.15000000 0.52941176 0.58823529 0.64705882
v -0.94186533 1.21135861 0.15000000 0.52941176 0.58823529 0.64705882
v -1.12495191 1.79847386 0.15000000 0.52941176 0.58823529 0.64705882
v -0.99504809 1.87347386 0.15000000 0.52941176 0.58823529 0.64705882
f 247 248 249
f 247 249 250
f 251 253 252
f 251 254 253
f 247 251 252
f 247 252 248
f 248 252 253
f 248 253 249
f 249 253 254
f 249 254 250
f 250 254 251
f 250 251 247

o geometry_12
v -1.02940216 1.13790650 -0.15000000 0.52941176 0.58823529 0.64705882
v -1.29937295 0.81616783 -0.15000000 0.52941176 0.58823529 0.64705882
v -1.67222329 1.30525640 -0.15000000 0.52941176 0.58823529 0.64705882
v -1.57580515 1.42016307 -0.15000000 0.52941176 0.58823529 0.64705882
v -1.02940216 1.13790650 0.15000000 0.52941176 0.58823529 0.64705882
v -1.29937295 0.81616783 0.15000000 0.52941176 0.58823529 0.64705882
v -1.67222329 1.30525640 0.15000000 0.52941176 0.58823529 0.64705882
v -1.57580515 1.42016307 0.15000000 0.52941176 0.58823529 0.64705882
f 255 256 257
f 255 257 258
f 259 261 260
f 259 262 261
f 255 259 260
f 255 260 256
f 256 260 261
f 256 261 257
f 257 261 262
f 257 262 258
f 258 262 259
f 258 259 255

o geometry_13
v -1.35650855 0.71720607 -0.15000000 0.52941176 0.58823529 0.64705882
v -1.50015701 0.32253517 -0.15000000 0.52941176 0.58823529 0.64705882
v -2.01779987 0.65460576 -0.15000000 0.52941176 0.58823529 0.64705882
v -1.96649685 0.79555965 -0.15000000 0.52941176 0.58823529 0.64705882
v -1.35650855 0.71720607 0.15000000 0.52941176 0.58823529 0.64705882
v -1.50015701 0.32253517 0.15000000 0.52941176 0.58823529 0.64705882
v -2.01779987 0.65460576 0.15000000 0.52941176 0.58823529 0.64705882
v -1.96649685 0.79555965 0.15000000 0.52941176 0.58823529 0.64705882
f 263 264 265
f 263 265 266
f 267 269 268
f 267 270 269
f 263 267 268
f 263 268 264
f 264 268 269
f 264 269 265
f 265 269 270
f 265 270 266
f 266 270 267
f 266 267 263

o geometry_14
v -1.52000000 0.21000000 -0.15000000 0.52941176 0.58823529 0.64705882
v -1.52000000 -0.21000000 -0.15000000 0.52941176 0.58823529 0.64705882
v -2.12000000 -0.07500000 -0.15000000 0.52941176 0.58823529 0.64705882
v -2.12000000 0.07500000 -0.15000000 0.52941176 0.58823529 0.64705882
v -1.52000000 0.21000000 0.15000000 0.52941176 0.58823529 0.64705882
v -1.52000000 -0.21000000 0.15000000 0.52941176 0.58823529 0.64705882
v -2.12000000 -0.07500000 0.15000000 0.52941176 0.58823529 0.64705882
v -2.12000000 0.07500000 0.15000000 0.52941176 0.58823529 0.64705882
f 271 272 273
f 271 273 274
f 275 277 276
f 275 278 277
f 271 275 276
f 271 276 272
f 272 276 277
f 272 277 273
f 273 277 278
f 273 278 274
f 274 278 275
f 274 275 271

o geometry_15
v -1.50015701 -0.32253517 -0.15000000 0.52941176 0.58823529 0.64705882
v -1.35650855 -0.71720607 -0.15000000 0.52941176 0.58823529 0.64705882
v -1.96649685 -0.79555965 -0.15000000 0.52941176 0.58823529 0.64705882
v -2.01779987 -0.65460576 -0.15000000 0.52941176 0.58823529 0.64705882
v -1.50015701 -0.32253517 0.15000000 0.52941176 0.58823529 0.64705882
v -1.35650855 -0.71720607 0.15000000 0.52941176 0.58823529 0.64705882
v -1.96649685 -0.79555965 0.15000000 0.52941176 0.58823529 0.64705882
v -2.01779987 -0.65460576 0.15000000 0.52941176 0.58823529 0.64705882
f 279 280 281
f 279 281 282
f 283 285 284
f 283 286 285
f 279 283 284
f 279 284 280
f 280 284 285
f 280 285 281
f 281 285 286
f 281 286 282
f 282 286 283
f 282 283 279

o geometry_16
v -1.29937295 -0.81616783 -0.15000000 0.52941176 0.58823529 0.64705882
v -1.02940216 -1.13790650 -0.15000000 0.52941176 0.58823529 0.64705882
v -1.57580515 -1.42016307 -0.15000000 0.52941176 0.58823529 0.64705882
v -1.67222329 -1.30525640 -0.15000000 0.52941176 0.58823529 0.64705882
v -1.29937295 -0.81616783 0.15000000 0.52941176 0.58823529 0.64705882
v -1.02940216 -1.13790650 0.15000000 0.52941176 0.58823529 0.64705882
v -1.57580515 -1.42016307 0.15000000 0.52941176 0.58823529 0.64705882
v -1.67222329 -1.30525640 0.15000000 0.52941176 0.58823529 0.64705882
f 287 288 289
f 287 289 290
f 291 293 292
f 291 294 293
f 287 291 292
f 287 292 288
f 288 292 293
f 288 293 289
f 289 293 294
f 289 294 290
f 290 294 291
f 290 291 287

o geometry_17
v -0.94186533 -1.21135861 -0.15000000 0.52941176 0.58823529 0.64705882
v -0.57813467 -1.42135861 -0.15000000 0.52941176 0.58823529 0.64705882
v -0.99504809 -1.87347386 -0.15000000 0.52941176 0.58823529 0.64705882
v -1.12495191 -1.79847386 -0.15000000 0.52941176 0.58823529 0.64705882
v -0.94186533 -1.21135861 0.15000000 0.52941176 0.58823529 0.64705882
v -0.57813467 -1.42135861 0.15000000 0.52941176 0.58823529 0.64705882
v -0.99504809 -1.87347386 0.15000000 0.52941176 0.58823529 0.64705882
v -1.12495191 -1.79847386 0.15000000 0.52941176 0.58823529 0.64705882
f 295 296 297
f 295 297 298
f 299 301 300
f 299 302 301
f 295 299 300
f 295 300 296
f 296 300 301
f 296 301 297
f 297 301 302
f 297 302 298
f 298 302 299
f 298 299 295

o geometry_18
v -0.47075486 -1.46044167 -0.15000000 0.52941176 0.58823529 0.64705882
v -0.05713560 -1.53337390 -0.15000000 0.52941176 0.58823529 0.64705882
v -0.29427356 -2.10081605 -0.15000000 0.52941176 0.58823529 0.64705882
v -0.44199472 -2.07476882 -0.15000000 0.52941176 0.58823529 0.64705882
v -0.47075486 -1.46044167 0.15000000 0.52941176 0.58823529 0.64705882
v -0.05713560 -1.53337390 0.15000000 0.52941176 0.58823529 0.64705882
v -0.29427356 -2.10081605 0.15000000 0.52941176 0.58823529 0.64705882
v -0.44199472 -2.07476882 0.15000000 0.52941176 0.58823529 0.64705882
f 303 304 305
f 303 305 306
f 307 309 308
f 307 310 309
f 303 307 308
f 303 308 304
f 304 308 309
f 304 309 305
f 305 309 310
f 305 310 306
f 306 310 307
f 306 307 303

o geometry_19
v 0.05713560 -1.53337390 -0.15000000 0.52941176 0.58823529 0.64705882
v 0.47075486 -1.46044167 -0.15000000 0.52941176 0.58823529 0.64705882
v 0.44199472 -2.07476882 -0.15000000 0.52941176 0.58823529 0.64705882
v 0.29427356 -2.10081605 -0.15000000 0.52941176 0.58823529 0.64705882
v 0.05713560 -1.53337390 0.15000000 0.52941176 0.58823529 0.64705882
v 0.47075486 -1.46044167 0.15000000 0.52941176 0.58823529 0.64705882
v 0.44199472 -2.07476882 0.15000000 0.52941176 0.58823529 0.64705882
v 0.29427356 -2.10081605 0.15000000 0.52941176 0.58823529 0.64705882
f 311 312 313
f 311 313 314
f 315 317 316
f 315 318 317
f 311 315 316
f 311 316 312
f 312 316 317
f 312 317 313
f 313 317 318
f 313 318 314
f 314 318 315
f 314 315 311

o geometry_20
v 0.57813467 -1.42135861 -0.15000000 0.52941176 0.58823529 0.64705882
v 0.94186533 -1.21135861 -0.15000000 0.52941176 0.58823529 0.64705882
v 1.12495191 -1.79847386 -0.15000000 0.52941176 0.58823529 0.64705882
v 0.99504809 -1.87347386 -0.15000000 0.52941176 0.58823529 0.64705882
v 0.57813467 -1.42135861 0.15000000 0.52941176 0.58823529 0.64705882
v 0.94186533 -1.21135861 0.15000000 0.52941176 0.58823529 0.64705882
v 1.12495191 -1.79847386 0.15000000 0.52941176 0.58823529 0.64705882
v 0.99504809 -1.87347386 0.15000000 0.52941176 0.58823529 0.64705882
f 319 320 321
f 319 321 322
f 323 325 324
f 323 326 325
f 319 323 324
f 319 324 320
f 320 324 325
f 320 325 321
f 321 325 326
f 321 326 322
f 322 326 323
f 322 323 319

o geometry_21
v 1.02940216 -1.13790650 -0.15000000 0.52941176 0.58823529 0.64705882
v 1.29937295 -0.81616783 -0.15000000 0.52941176 0.58823529 0.64705882
v 1.67222329 -1.30525640 -0.15000000 0.52941176 0.58823529 0.64705882
v 1.57580515 -1.42016307 -0.15000000 0.52941176 0.58823529 0.64705882
v 1.02940216 -1.13790650 0.15000000 0.52941176 0.58823529 0.64705882
v 1.29937295 -0.81616783 0.15000000 0.52941176 0.58823529 0.64705882
v 1.67222329 -1.30525640 0.15000000 0.52941176 0.58823529 0.64705882
v 1.57580515 -1.42016307 0.15000000 0.52941176 0.58823529 0.64705882
f 327 328 329
f 327 329 330
f 331 333 332
f 331 334 333
f 327 331 332
f 327 332 328
f 328 332 333
f 328 333 329
f 329 333 334
f 329 334 330
f 330 334 331
f 330 331 327

o geometry_22
v 1.35650855 -0.71720607 -0.15000000 0.52941176 0.58823529 0.64705882
v 1.50015701 -0.32253517 -0.15000000 0.52941176 0.58823529 0.64705882
v 2.01779987 -0.65460576 -0.15000000 0.52941176 0.58823529 0.64705882
v 1.96649685 -0.79555965 -0.15000000 0.52941176 0.58823529 0.64705882
v 1.35650855 -0.71720607 0.15000000 0.52941176 0.58823529 0.64705882
v 1.50015701 -0.32253517 0.15000000 0.52941176 0.58823529 0.64705882
v 2.01779987 -0.65460576 0.15000000 0.52941176 0.58823529 0.64705882
v 1.96649685 -0.79555965 0.15000000 0.52941176 0.58823529 0.64705882
f 335 336 337
f 335 337 338
f 339 341 340
f 339 342 341
f 335 339 340
f 335 340 336
f 336 340 341
f 336 341 337
f 337 341 342
f 337 342 338
f 338 342 339
f 338 339 335

o geometry_23
v 0.19500000 -0.12500000 0.10000000 0.18823529 0.22352941 0.25882353
v 0.19500000 -0.12500000 0.26000000 0.18823529 0.22352941 0.25882353
v 0.19500000 0.12500000 0.10000000 0.18823529 0.22352941 0.25882353
v 0.19500000 0.12500000 0.26000000 0.18823529 0.22352941 0.25882353
v 1.44500000 -0.12500000 0.10000000 0.18823529 0.22352941 0.25882353
v 1.44500000 -0.12500000 0.26000000 0.18823529 0.22352941 0.25882353
v 1.44500000 0.12500000 0.10000000 0.18823529 0.22352941 0.25882353
v 1.44500000 0.12500000 0.26000000 0.18823529 0.22352941 0.25882353
f 344 346 343
f 347 344 343
f 343 346 345
f 345 347 343
f 344 350 346
f 348 344 347
f 348 350 344
f 346 350 345
f 349 347 345
f 345 350 349
f 349 348 347
f 350 348 349

o geometry_24
v 1.18000000 0.00000000 0.24000000 0.52941176 0.58823529 0.64705882
v 1.27500000 0.00000000 0.24000000 0.52941176 0.58823529 0.64705882
v 1.27500000 0.00000000 0.36000000 0.52941176 0.58823529 0.64705882
v 1.18000000 0.00000000 0.36000000 0.52941176 0.58823529 0.64705882
v 1.22750000 0.08227241 0.24000000 0.52941176 0.58823529 0.64705882
v 1.22750000 0.08227241 0.36000000 0.52941176 0.58823529 0.64705882
v 1.13250000 0.08227241 0.24000000 0.52941176 0.58823529 0.64705882
v 1.13250000 0.08227241 0.36000000 0.52941176 0.58823529 0.64705882
v 1.08500000 0.00000000 0.24000000 0.52941176 0.58823529 0.64705882
v 1.08500000 0.00000000 0.36000000 0.52941176 0.58823529 0.64705882
v 1.13250000 -0.08227241 0.24000000 0.52941176 0.58823529 0.64705882
v 1.13250000 -0.08227241 0.36000000 0.52941176 0.58823529 0.64705882
v 1.22750000 -0.08227241 0.24000000 0.52941176 0.58823529 0.64705882
v 1.22750000 -0.08227241 0.36000000 0.52941176 0.58823529 0.64705882
f 352 351 355
f 352 355 353
f 353 355 356
f 353 356 354
f 355 351 357
f 355 357 356
f 356 357 358
f 356 358 354
f 357 351 359
f 357 359 358
f 358 359 360
f 358 360 354
f 359 351 361
f 359 361 360
f 360 361 362
f 360 362 354
f 361 351 363
f 361 363 362
f 362 363 364
f 362 364 354
f 363 351 352
f 363 352 364
f 364 352 353
f 364 353 354

o geometry_25
v 0.20575318 0.10637495 0.10000000 0.18823529 0.22352941 0.25882353
v 0.20575318 0.10637495 0.26000000 0.18823529 0.22352941 0.25882353
v -0.01075318 0.23137495 0.10000000 0.18823529 0.22352941 0.25882353
v -0.01075318 0.23137495 0.26000000 0.18823529 0.22352941 0.25882353
v 0.83075318 1.18890671 0.10000000 0.18823529 0.22352941 0.25882353
v 0.83075318 1.18890671 0.26000000 0.18823529 0.22352941 0.25882353
v 0.61424682 1.31390671 0.10000000 0.18823529 0.22352941 0.25882353
v 0.61424682 1.31390671 0.26000000 0.18823529 0.22352941 0.25882353
f 366 368 365
f 369 366 365
f 365 368 367
f 367 369 365
f 366 372 368
f 370 366 369
f 370 372 366
f 368 372 367
f 371 369 367
f 367 372 371
f 371 370 369
f 372 370 371

o geometry_26
v 0.59000000 1.02190998 0.24000000 0.52941176 0.58823529 0.64705882
v 0.68500000 1.02190998 0.24000000 0.52941176 0.58823529 0.64705882
v 0.68500000 1.02190998 0.36000000 0.52941176 0.58823529 0.64705882
v 0.59000000 1.02190998 0.36000000 0.52941176 0.58823529 0.64705882
v 0.63750000 1.10418239 0.24000000 0.52941176 0.58823529 0.64705882
v 0.63750000 1.10418239 0.36000000 0.52941176 0.58823529 0.64705882
v 0.54250000 1.10418239 0.24000000 0.52941176 0.58823529 0.64705882
v 0.54250000 1.10418239 0.36000000 0.52941176 0.58823529 0.64705882
v 0.49500000 1.02190998 0.24000000 0.52941176 0.58823529 0.64705882
v 0.49500000 1.02190998 0.36000000 0.52941176 0.58823529 0.64705882
v 0.54250000 0.93963756 0.24000000 0.52941176 0.58823529 0.64705882
v 0.54250000 0.93963756 0.36000000 0.52941176 0.58823529 0.64705882
v 0.63750000 0.93963756 0.24000000 0.52941176 0.58823529 0.64705882
v 0.63750000 0.93963756 0.36000000 0.52941176 0.58823529 0.64705882
f 374 373 377
f 374 377 375
f 375 377 378
f 375 378 376
f 377 373 379
f 377 379 378
f 378 379 380
f 378 380 376
f 379 373 381
f 379 381 380
f 380 381 382
f 380 382 376
f 381 373 383
f 381 383 382
f 382 383 384
f 382 384 376
f 383 373 385
f 383 385 384
f 384 385 386
f 384 386 376
f 385 373 374
f 385 374 386
f 386 374 375
f 386 375 376

o geometry_27
v 0.01075318 0.23137495 0.10000000 0.18823529 0.22352941 0.25882353
v 0.01075318 0.23137495 0.26000000 0.18823529 0.22352941 0.25882353
v -0.20575318 0.10637495 0.10000000 0.18823529 0.22352941 0.25882353
v -0.20575318 0.10637495 0.26000000 0.18823529 0.22352941 0.25882353
v -0.61424682 1.31390671 0.10000000 0.18823529 0.22352941 0.25882353
v -0.61424682 1.31390671 0.26000000 0.18823529 0.22352941 0.25882353
v -0.83075318 1.18890671 0.10000000 0.18823529 0.22352941 0.25882353
v -0.83075318 1.18890671 0.26000000 0.18823529 0.22352941 0.25882353
f 388 390 387
f 391 388 387
f 387 390 389
f 389 391 387
f 388 394 390
f 392 388 391
f 392 394 388
f 390 394 389
f 393 391 389
f 389 394 393
f 393 392 391
f 394 392 393

o geometry_28
v -0.59000000 1.02190998 0.24000000 0.52941176 0.58823529 0.64705882
v -0.49500000 1.02190998 0.24000000 0.52941176 0.58823529 0.64705882
v -0.49500000 1.02190998 0.36000000 0.52941176 0.58823529 0.64705882
v -0.59000000 1.02190998 0.36000000 0.52941176 0.58823529 0.64705882
v -0.54250000 1.10418239 0.24000000 0.52941176 0.58823529 0.64705882
v -0.54250000 1.10418239 0.36000000 0.52941176 0.58823529 0.64705882
v -0.63750000 1.10418239 0.24000000 0.52941176 0.58823529 0.64705882
v -0.63750000 1.10418239 0.36000000 0.52941176 0.58823529 0.64705882
v -0.68500000 1.02190998 0.24000000 0.52941176 0.58823529 0.64705882
v -0.68500000 1.02190998 0.36000000 0.52941176 0.58823529 0.64705882
v -0.63750000 0.93963756 0.24000000 0.52941176 0.58823529 0.64705882
v -0.63750000 0.93963756 0.36000000 0.52941176 0.58823529 0.64705882
v -0.54250000 0.93963756 0.24000000 0.52941176 0.58823529 0.64705882
v -0.54250000 0.93963756 0.36000000 0.52941176 0.58823529 0.64705882
f 396 395 399
f 396 399 397
f 397 399 400
f 397 400 398
f 399 395 401
f 399 401 400
f 400 401 402
f 400 402 398
f 401 395 403
f 401 403 402
f 402 403 404
f 402 404 398
f 403 395 405
f 403 405 404
f 404 405 406
f 404 406 398
f 405 395 407
f 405 407 406
f 406 407 408
f 406 408 398
f 407 395 396
f 407 396 408
f 408 396 397
f 408 397 398

o geometry_29
v -0.19500000 0.12500000 0.10000000 0.18823529 0.22352941 0.25882353
v -0.19500000 0.12500000 0.26000000 0.18823529 0.22352941 0.25882353
v -0.19500000 -0.12500000 0.10000000 0.18823529 0.22352941 0.25882353
v -0.19500000 -0.12500000 0.26000000 0.18823529 0.22352941 0.25882353
v -1.44500000 0.12500000 0.10000000 0.18823529 0.22352941 0.25882353
v -1.44500000 0.12500000 0.26000000 0.18823529 0.22352941 0.25882353
v -1.44500000 -0.12500000 0.10000000 0.18823529 0.22352941 0.25882353
v -1.44500000 -0.12500000 0.26000000 0.18823529 0.22352941 0.25882353
f 410 412 409
f 413 410 409
f 409 412 411
f 411 413 409
f 410 416 412
f 414 410 413
f 414 416 410
f 412 416 411
f 415 413 411
f 411 416 415
f 415 414 413
f 416 414 415

o geometry_30
v -1.18000000 0.00000000 0.24000000 0.52941176 0.58823529 0.64705882
v -1.08500000 0.00000000 0.24000000 0.52941176 0.58823529 0.64705882
v -1.08500000 0.00000000 0.36000000 0.52941176 0.58823529 0.64705882
v -1.18000000 0.00000000 0.36000000 0.52941176 0.58823529 0.64705882
v -1.13250000 0.08227241 0.24000000 0.52941176 0.58823529 0.64705882
v -1.13250000 0.08227241 0.36000000 0.52941176 0.58823529 0.64705882
v -1.22750000 0.08227241 0.24000000 0.52941176 0.58823529 0.64705882
v -1.22750000 0.08227241 0.36000000 0.52941176 0.58823529 0.64705882
v -1.27500000 0.00000000 0.24000000 0.52941176 0.58823529 0.64705882
v -1.27500000 0.00000000 0.36000000 0.52941176 0.58823529 0.64705882
v -1.22750000 -0.08227241 0.24000000 0.52941176 0.58823529 0.64705882
v -1.22750000 -0.08227241 0.36000000 0.52941176 0.58823529 0.64705882
v -1.13250000 -0.08227241 0.24000000 0.52941176 0.58823529 0.64705882
v -1.13250000 -0.08227241 0.36000000 0.52941176 0.58823529 0.64705882
f 418 417 421
f 418 421 419
f 419 421 422
f 419 422 420
f 421 417 423
f 421 423 422
f 422 423 424
f 422 424 420
f 423 417 425
f 423 425 424
f 424 425 426
f 424 426 420
f 425 417 427
f 425 427 426
f 426 427 428
f 426 428 420
f 427 417 429
f 427 429 428
f 428 429 430
f 428 430 420
f 429 417 418
f 429 418 430
f 430 418 419
f 430 419 420

o geometry_31
v -0.20575318 -0.10637495 0.10000000 0.18823529 0.22352941 0.25882353
v -0.20575318 -0.10637495 0.26000000 0.18823529 0.22352941 0.25882353
v 0.01075318 -0.23137495 0.10000000 0.18823529 0.22352941 0.25882353
v 0.01075318 -0.23137495 0.26000000 0.18823529 0.22352941 0.25882353
v -0.83075318 -1.18890671 0.10000000 0.18823529 0.22352941 0.25882353
v -0.83075318 -1.18890671 0.26000000 0.18823529 0.22352941 0.25882353
v -0.61424682 -1.31390671 0.10000000 0.18823529 0.22352941 0.25882353
v -0.61424682 -1.31390671 0.26000000 0.18823529 0.22352941 0.25882353
f 432 434 431
f 435 432 431
f 431 434 433
f 433 435 431
f 432 438 434
f 436 432 435
f 436 438 432
f 434 438 433
f 437 435 433
f 433 438 437
f 437 436 435
f 438 436 437

o geometry_32
v -0.59000000 -1.02190998 0.24000000 0.52941176 0.58823529 0.64705882
v -0.49500000 -1.02190998 0.24000000 0.52941176 0.58823529 0.64705882
v -0.49500000 -1.02190998 0.36000000 0.52941176 0.58823529 0.64705882
v -0.59000000 -1.02190998 0.36000000 0.52941176 0.58823529 0.64705882
v -0.54250000 -0.93963756 0.24000000 0.52941176 0.58823529 0.64705882
v -0.54250000 -0.93963756 0.36000000 0.52941176 0.58823529 0.64705882
v -0.63750000 -0.93963756 0.24000000 0.52941176 0.58823529 0.64705882
v -0.63750000 -0.93963756 0.36000000 0.52941176 0.58823529 0.64705882
v -0.68500000 -1.02190998 0.24000000 0.52941176 0.58823529 0.64705882
v -0.68500000 -1.02190998 0.36000000 0.52941176 0.58823529 0.64705882
v -0.63750000 -1.10418239 0.24000000 0.52941176 0.58823529 0.64705882
v -0.63750000 -1.10418239 0.36000000 0.52941176 0.58823529 0.64705882
v -0.54250000 -1.10418239 0.24000000 0.52941176 0.58823529 0.64705882
v -0.54250000 -1.10418239 0.36000000 0.52941176 0.58823529 0.64705882
f 440 439 443
f 440 443 441
f 441 443 444
f 441 444 442
f 443 439 445
f 443 445 444
f 444 445 446
f 444 446 442
f 445 439 447
f 445 447 446
f 446 447 448
f 446 448 442
f 447 439 449
f 447 449 448
f 448 449 450
f 448 450 442
f 449 439 451
f 449 451 450
f 450 451 452
f 450 452 442
f 451 439 440
f 451 440 452
f 452 440 441
f 452 441 442

o geometry_33
v -0.01075318 -0.23137495 0.10000000 0.18823529 0.22352941 0.25882353
v -0.01075318 -0.23137495 0.26000000 0.18823529 0.22352941 0.25882353
v 0.20575318 -0.10637495 0.10000000 0.18823529 0.22352941 0.25882353
v 0.20575318 -0.10637495 0.26000000 0.18823529 0.22352941 0.25882353
v 0.61424682 -1.31390671 0.10000000 0.18823529 0.22352941 0.25882353
v 0.61424682 -1.31390671 0.26000000 0.18823529 0.22352941 0.25882353
v 0.83075318 -1.18890671 0.10000000 0.18823529 0.22352941 0.25882353
v 0.83075318 -1.18890671 0.26000000 0.18823529 0.22352941 0.25882353
f 454 456 453
f 457 454 453
f 453 456 455
f 455 457 453
f 454 460 456
f 458 454 457
f 458 460 454
f 456 460 455
f 459 457 455
f 455 460 459
f 459 458 457
f 460 458 459

o geometry_34
v 0.59000000 -1.02190998 0.24000000 0.52941176 0.58823529 0.64705882
v 0.68500000 -1.02190998 0.24000000 0.52941176 0.58823529 0.64705882
v 0.68500000 -1.02190998 0.36000000 0.52941176 0.58823529 0.64705882
v 0.59000000 -1.02190998 0.36000000 0.52941176 0.58823529 0.64705882
v 0.63750000 -0.93963756 0.24000000 0.52941176 0.58823529 0.64705882
v 0.63750000 -0.93963756 0.36000000 0.52941176 0.58823529 0.64705882
v 0.54250000 -0.93963756 0.24000000 0.52941176 0.58823529 0.64705882
v 0.54250000 -0.93963756 0.36000000 0.52941176 0.58823529 0.64705882
v 0.49500000 -1.02190998 0.24000000 0.52941176 0.58823529 0.64705882
v 0.49500000 -1.02190998 0.36000000 0.52941176 0.58823529 0.64705882
v 0.54250000 -1.10418239 0.24000000 0.52941176 0.58823529 0.64705882
v 0.54250000 -1.10418239 0.36000000 0.52941176 0.58823529 0.64705882
v 0.63750000 -1.10418239 0.24000000 0.52941176 0.58823529 0.64705882
v 0.63750000 -1.10418239 0.36000000 0.52941176 0.58823529 0.64705882
f 462 461 465
f 462 465 463
f 463 465 466
f 463 466 464
f 465 461 467
f 465 467 466
f 466 467 468
f 466 468 464
f 467 461 469
f 467 469 468
f 468 469 470
f 468 470 464
f 469 461 471
f 469 471 470
f 470 471 472
f 470 472 464
f 471 461 473
f 471 473 472
f 472 473 474
f 472 474 464
f 473 461 462
f 473 462 474
f 474 462 463
f 474 463 464

o geometry_35
v 0.52000000 0.00000000 0.32000000 0.52941176 0.58823529 0.64705882
v 0.59500000 0.00000000 0.32000000 0.52941176 0.58823529 0.64705882
v 0.59500000 0.00000000 0.44000000 0.52941176 0.58823529 0.64705882
v 0.52000000 0.00000000 0.44000000 0.52941176 0.58823529 0.64705882
v 0.55750000 0.06495191 0.32000000 0.52941176 0.58823529 0.64705882
v 0.55750000 0.06495191 0.44000000 0.52941176 0.58823529 0.64705882
v 0.48250000 0.06495191 0.32000000 0.52941176 0.58823529 0.64705882
v 0.48250000 0.06495191 0.44000000 0.52941176 0.58823529 0.64705882
v 0.44500000 0.00000000 0.32000000 0.52941176 0.58823529 0.64705882
v 0.44500000 0.00000000 0.44000000 0.52941176 0.58823529 0.64705882
v 0.48250000 -0.06495191 0.32000000 0.52941176 0.58823529 0.64705882
v 0.48250000 -0.06495191 0.44000000 0.52941176 0.58823529 0.64705882
v 0.55750000 -0.06495191 0.32000000 0.52941176 0.58823529 0.64705882
v 0.55750000 -0.06495191 0.44000000 0.52941176 0.58823529 0.64705882
f 476 475 479
f 476 479 477
f 477 479 480
f 477 480 478
f 479 475 481
f 479 481 480
f 480 481 482
f 480 482 478
f 481 475 483
f 481 483 482
f 482 483 484
f 482 484 478
f 483 475 485
f 483 485 484
f 484 485 486
f 484 486 478
f 485 475 487
f 485 487 486
f 486 487 488
f 486 488 478
f 487 475 476
f 487 476 488
f 488 476 477
f 488 477 478

o geometry_36
v 0.42068884 0.30564833 0.32000000 0.52941176 0.58823529 0.64705882
v 0.49568884 0.30564833 0.32000000 0.52941176 0.58823529 0.64705882
v 0.49568884 0.30564833 0.44000000 0.52941176 0.58823529 0.64705882
v 0.42068884 0.30564833 0.44000000 0.52941176 0.58823529 0.64705882
v 0.45818884 0.37060024 0.32000000 0.52941176 0.58823529 0.64705882
v 0.45818884 0.37060024 0.44000000 0.52941176 0.58823529 0.64705882
v 0.38318884 0.37060024 0.32000000 0.52941176 0.58823529 0.64705882
v 0.38318884 0.37060024 0.44000000 0.52941176 0.58823529 0.64705882
v 0.34568884 0.30564833 0.32000000 0.52941176 0.58823529 0.64705882
v 0.34568884 0.30564833 0.44000000 0.52941176 0.58823529 0.64705882
v 0.38318884 0.24069643 0.32000000 0.52941176 0.58823529 0.64705882
v 0.38318884 0.24069643 0.44000000 0.52941176 0.58823529 0.64705882
v 0.45818884 0.24069643 0.32000000 0.52941176 0.58823529 0.64705882
v 0.45818884 0.24069643 0.44000000 0.52941176 0.58823529 0.64705882
f 490 489 493
f 490 493 491
f 491 493 494
f 491 494 492
f 493 489 495
f 493 495 494
f 494 495 496
f 494 496 492
f 495 489 497
f 495 497 496
f 496 497 498
f 496 498 492
f 497 489 499
f 497 499 498
f 498 499 500
f 498 500 492
f 499 489 501
f 499 501 500
f 500 501 502
f 500 502 492
f 501 489 490
f 501 490 502
f 502 490 491
f 502 491 492

o geometry_37
v 0.16068884 0.49454939 0.32000000 0.52941176 0.58823529 0.64705882
v 0.23568884 0.49454939 0.32000000 0.52941176 0.58823529 0.64705882
v 0.23568884 0.49454939 0.44000000 0.52941176 0.58823529 0.64705882
v 0.16068884 0.49454939 0.44000000 0.52941176 0.58823529 0.64705882
v 0.19818884 0.55950129 0.32000000 0.52941176 0.58823529 0.64705882
v 0.19818884 0.55950129 0.44000000 0.52941176 0.58823529 0.64705882
v 0.12318884 0.55950129 0.32000000 0.52941176 0.58823529 0.64705882
v 0.12318884 0.55950129 0.44000000 0.52941176 0.58823529 0.64705882
v 0.08568884 0.49454939 0.32000000 0.52941176 0.58823529 0.64705882
v 0.08568884 0.49454939 0.44000000 0.52941176 0.58823529 0.64705882
v 0.12318884 0.42959748 0.32000000 0.52941176 0.58823529 0.64705882
v 0.12318884 0.42959748 0.44000000 0.52941176 0.58823529 0.64705882
v 0.19818884 0.42959748 0.32000000 0.52941176 0.58823529 0.64705882
v 0.19818884 0.42959748 0.44000000 0.52941176 0.58823529 0.64705882
f 504 503 507
f 504 507 505
f 505 507 508
f 505 508 506
f 507 503 509
f 507 509 508
f 508 509 510
f 508 510 506
f 509 503 511
f 509 511 510
f 510 511 512
f 510 512 506
f 511 503 513
f 511 513 512
f 512 513 514
f 512 514 506
f 513 503 515
f 513 515 514
f 514 515 516
f 514 516 506
f 515 503 504
f 515 504 516
f 516 504 505
f 516 505 506

o geometry_38
v -0.16068884 0.49454939 0.32000000 0.52941176 0.58823529 0.64705882
v -0.08568884 0.49454939 0.32000000 0.52941176 0.58823529 0.64705882
v -0.08568884 0.49454939 0.44000000 0.52941176 0.58823529 0.64705882
v -0.16068884 0.49454939 0.44000000 0.52941176 0.58823529 0.64705882
v -0.12318884 0.55950129 0.32000000 0.52941176 0.58823529 0.64705882
v -0.12318884 0.55950129 0.44000000 0.52941176 0.58823529 0.64705882
v -0.19818884 0.55950129 0.32000000 0.52941176 0.58823529 0.64705882
v -0.19818884 0.55950129 0.44000000 0.52941176 0.58823529 0.64705882
v -0.23568884 0.49454939 0.32000000 0.52941176 0.58823529 0.64705882
v -0.23568884 0.49454939 0.44000000 0.52941176 0.58823529 0.64705882
v -0.19818884 0.42959748 0.32000000 0.52941176 0.58823529 0.64705882
v -0.19818884 0.42959748 0.44000000 0.52941176 0.58823529 0.64705882
v -0.12318884 0.42959748 0.32000000 0.52941176 0.58823529 0.64705882
v -0.12318884 0.42959748 0.44000000 0.52941176 0.58823529 0.64705882
f 518 517 521
f 518 521 519
f 519 521 522
f 519 522 520
f 521 517 523
f 521 523 522
f 522 523 524
f 522 524 520
f 523 517 525
f 523 525 524
f 524 525 526
f 524 526 520
f 525 517 527
f 525 527 526
f 526 527 528
f 526 528 520
f 527 517 529
f 527 529 528
f 528 529 530
f 528 530 520
f 529 517 518
f 529 518 530
f 530 518 519
f 530 519 520

o geometry_39
v -0.42068884 0.30564833 0.32000000 0.52941176 0.58823529 0.64705882
v -0.34568884 0.30564833 0.32000000 0.52941176 0.58823529 0.64705882
v -0.34568884 0.30564833 0.44000000 0.52941176 0.58823529 0.64705882
v -0.42068884 0.30564833 0.44000000 0.52941176 0.58823529 0.64705882
v -0.38318884 0.37060024 0.32000000 0.52941176 0.58823529 0.64705882
v -0.38318884 0.37060024 0.44000000 0.52941176 0.58823529 0.64705882
v -0.45818884 0.37060024 0.32000000 0.52941176 0.58823529 0.64705882
v -0.45818884 0.37060024 0.44000000 0.52941176 0.58823529 0.64705882
v -0.49568884 0.30564833 0.32000000 0.52941176 0.58823529 0.64705882
v -0.49568884 0.30564833 0.44000000 0.52941176 0.58823529 0.64705882
v -0.45818884 0.24069643 0.32000000 0.52941176 0.58823529 0.64705882
v -0.45818884 0.24069643 0.44000000 0.52941176 0.58823529 0.64705882
v -0.38318884 0.24069643 0.32000000 0.52941176 0.58823529 0.64705882
v -0.38318884 0.24069643 0.44000000 0.52941176 0.58823529 0.64705882
f 532 531 535
f 532 535 533
f 533 535 536
f 533 536 534
f 535 531 537
f 535 537 536
f 536 537 538
f 536 538 534
f 537 531 539
f 537 539 538
f 538 539 540
f 538 540 534
f 539 531 541
f 539 541 540
f 540 541 542
f 540 542 534
f 541 531 543
f 541 543 542
f 542 543 544
f 542 544 534
f 543 531 532
f 543 532 544
f 544 532 533
f 544 533 534

o geometry_40
v -0.52000000 0.00000000 0.32000000 0.52941176 0.58823529 0.64705882
v -0.44500000 0.00000000 0.32000000 0.52941176 0.58823529 0.64705882
v -0.44500000 0.00000000 0.44000000 0.52941176 0.58823529 0.64705882
v -0.52000000 0.00000000 0.44000000 0.52941176 0.58823529 0.64705882
v -0.48250000 0.06495191 0.32000000 0.52941176 0.58823529 0.64705882
v -0.48250000 0.06495191 0.44000000 0.52941176 0.58823529 0.64705882
v -0.55750000 0.06495191 0.32000000 0.52941176 0.58823529 0.64705882
v -0.55750000 0.06495191 0.44000000 0.52941176 0.58823529 0.64705882
v -0.59500000 0.00000000 0.32000000 0.52941176 0.58823529 0.64705882
v -0.59500000 0.00000000 0.44000000 0.52941176 0.58823529 0.64705882
v -0.55750000 -0.06495191 0.32000000 0.52941176 0.58823529 0.64705882
v -0.55750000 -0.06495191 0.44000000 0.52941176 0.58823529 0.64705882
v -0.48250000 -0.06495191 0.32000000 0.52941176 0.58823529 0.64705882
v -0.48250000 -0.06495191 0.44000000 0.52941176 0.58823529 0.64705882
f 546 545 549
f 546 549 547
f 547 549 550
f 547 550 548
f 549 545 551
f 549 551 550
f 550 551 552
f 550 552 548
f 551 545 553
f 551 553 552
f 552 553 554
f 552 554 548
f 553 545 555
f 553 555 554
f 554 555 556
f 554 556 548
f 555 545 557
f 555 557 556
f 556 557 558
f 556 558 548
f 557 545 546
f 557 546 558
f 558 546 547
f 558 547 548

o geometry_41
v -0.42068884 -0.30564833 0.32000000 0.52941176 0.58823529 0.64705882
v -0.34568884 -0.30564833 0.32000000 0.52941176 0.58823529 0.64705882
v -0.34568884 -0.30564833 0.44000000 0.52941176 0.58823529 0.64705882
v -0.42068884 -0.30564833 0.44000000 0.52941176 0.58823529 0.64705882
v -0.38318884 -0.24069643 0.32000000 0.52941176 0.58823529 0.64705882
v -0.38318884 -0.24069643 0.44000000 0.52941176 0.58823529 0.64705882
v -0.45818884 -0.24069643 0.32000000 0.52941176 0.58823529 0.64705882
v -0.45818884 -0.24069643 0.44000000 0.52941176 0.58823529 0.64705882
v -0.49568884 -0.30564833 0.32000000 0.52941176 0.58823529 0.64705882
v -0.49568884 -0.30564833 0.44000000 0.52941176 0.58823529 0.64705882
v -0.45818884 -0.37060024 0.32000000 0.52941176 0.58823529 0.64705882
v -0.45818884 -0.37060024 0.44000000 0.52941176 0.58823529 0.64705882
v -0.38318884 -0.37060024 0.32000000 0.52941176 0.58823529 0.64705882
v -0.38318884 -0.37060024 0.44000000 0.52941176 0.58823529 0.64705882
f 560 559 563
f 560 563 561
f 561 563 564
f 561 564 562
f 563 559 565
f 563 565 564
f 564 565 566
f 564 566 562
f 565 559 567
f 565 567 566
f 566 567 568
f 566 568 562
f 567 559 569
f 567 569 568
f 568 569 570
f 568 570 562
f 569 559 571
f 569 571 570
f 570 571 572
f 570 572 562
f 571 559 560
f 571 560 572
f 572 560 561
f 572 561 562

o geometry_42
v -0.16068884 -0.49454939 0.32000000 0.52941176 0.58823529 0.64705882
v -0.08568884 -0.49454939 0.32000000 0.52941176 0.58823529 0.64705882
v -0.08568884 -0.49454939 0.44000000 0.52941176 0.58823529 0.64705882
v -0.16068884 -0.49454939 0.44000000 0.52941176 0.58823529 0.64705882
v -0.12318884 -0.42959748 0.32000000 0.52941176 0.58823529 0.64705882
v -0.12318884 -0.42959748 0.44000000 0.52941176 0.58823529 0.64705882
v -0.19818884 -0.42959748 0.32000000 0.52941176 0.58823529 0.64705882
v -0.19818884 -0.42959748 0.44000000 0.52941176 0.58823529 0.64705882
v -0.23568884 -0.49454939 0.32000000 0.52941176 0.58823529 0.64705882
v -0.23568884 -0.49454939 0.44000000 0.52941176 0.58823529 0.64705882
v -0.19818884 -0.55950129 0.32000000 0.52941176 0.58823529 0.64705882
v -0.19818884 -0.55950129 0.44000000 0.52941176 0.58823529 0.64705882
v -0.12318884 -0.55950129 0.32000000 0.52941176 0.58823529 0.64705882
v -0.12318884 -0.55950129 0.44000000 0.52941176 0.58823529 0.64705882
f 574 573 577
f 574 577 575
f 575 577 578
f 575 578 576
f 577 573 579
f 577 579 578
f 578 579 580
f 578 580 576
f 579 573 581
f 579 581 580
f 580 581 582
f 580 582 576
f 581 573 583
f 581 583 582
f 582 583 584
f 582 584 576
f 583 573 585
f 583 585 584
f 584 585 586
f 584 586 576
f 585 573 574
f 585 574 586
f 586 574 575
f 586 575 576

o geometry_43
v 0.16068884 -0.49454939 0.32000000 0.52941176 0.58823529 0.64705882
v 0.23568884 -0.49454939 0.32000000 0.52941176 0.58823529 0.64705882
v 0.23568884 -0.49454939 0.44000000 0.52941176 0.58823529 0.64705882
v 0.16068884 -0.49454939 0.44000000 0.52941176 0.58823529 0.64705882
v 0.19818884 -0.42959748 0.32000000 0.52941176 0.58823529 0.64705882
v 0.19818884 -0.42959748 0.44000000 0.52941176 0.58823529 0.64705882
v 0.12318884 -0.42959748 0.32000000 0.52941176 0.58823529 0.64705882
v 0.12318884 -0.42959748 0.44000000 0.52941176 0.58823529 0.64705882
v 0.08568884 -0.49454939 0.32000000 0.52941176 0.58823529 0.64705882
v 0.08568884 -0.49454939 0.44000000 0.52941176 0.58823529 0.64705882
v 0.12318884 -0.55950129 0.32000000 0.52941176 0.58823529 0.64705882
v 0.12318884 -0.55950129 0.44000000 0.52941176 0.58823529 0.64705882
v 0.19818884 -0.55950129 0.32000000 0.52941176 0.58823529 0.64705882
v 0.19818884 -0.55950129 0.44000000 0.52941176 0.58823529 0.64705882
f 588 587 591
f 588 591 589
f 589 591 592
f 589 592 590
f 591 587 593
f 591 593 592
f 592 593 594
f 592 594 590
f 593 587 595
f 593 595 594
f 594 595 596
f 594 596 590
f 595 587 597
f 595 597 596
f 596 597 598
f 596 598 590
f 597 587 599
f 597 599 598
f 598 599 600
f 598 600 590
f 599 587 588
f 599 588 600
f 600 588 589
f 600 589 590

o geometry_44
v 0.42068884 -0.30564833 0.32000000 0.52941176 0.58823529 0.64705882
v 0.49568884 -0.30564833 0.32000000 0.52941176 0.58823529 0.64705882
v 0.49568884 -0.30564833 0.44000000 0.52941176 0.58823529 0.64705882
v 0.42068884 -0.30564833 0.44000000 0.52941176 0.58823529 0.64705882
v 0.45818884 -0.24069643 0.32000000 0.52941176 0.58823529 0.64705882
v 0.45818884 -0.24069643 0.44000000 0.52941176 0.58823529 0.64705882
v 0.38318884 -0.24069643 0.32000000 0.52941176 0.58823529 0.64705882
v 0.38318884 -0.24069643 0.44000000 0.52941176 0.58823529 0.64705882
v 0.34568884 -0.30564833 0.32000000 0.52941176 0.58823529 0.64705882
v 0.34568884 -0.30564833 0.44000000 0.52941176 0.58823529 0.64705882
v 0.38318884 -0.37060024 0.32000000 0.52941176 0.58823529 0.64705882
v 0.38318884 -0.37060024 0.44000000 0.52941176 0.58823529 0.64705882
v 0.45818884 -0.37060024 0.32000000 0.52941176 0.58823529 0.64705882
v 0.45818884 -0.37060024 0.44000000 0.52941176 0.58823529 0.64705882
f 602 601 605
f 602 605 603
f 603 605 606
f 603 606 604
f 605 601 607
f 605 607 606
f 606 607 608
f 606 608 604
f 607 601 609
f 607 609 608
f 608 609 610
f 608 610 604
f 609 601 611
f 609 611 610
f 610 611 612
f 610 612 604
f 611 601 613
f 611 613 612
f 612 613 614
f 612 614 604
f 613 601 602
f 613 602 614
f 614 602 603
f 614 603 604

o geometry_45
v 2.08378094 0.37918464 0.05300000 0.61960784 0.86274510 1.00000000
v 1.87401302 0.42598611 -0.01960000 0.61960784 0.86274510 1.00000000
v 1.90394676 0.26148745 -0.01960000 0.61960784 0.86274510 1.00000000
v 1.88897989 0.34373678 0.10360000 0.61960784 0.86274510 1.00000000
v 1.88897989 0.34373678 -0.04160000 0.61960784 0.86274510 1.00000000
f 615 616 618
f 615 618 617
f 615 617 619
f 615 619 616
f 616 619 617
f 616 617 618

o geometry_46
v 1.86928251 1.07027982 0.05900000 0.86666667 0.96078431 1.00000000
v 1.61712107 1.03975040 -0.02680000 0.86666667 0.96078431 1.00000000
v 1.71530458 0.86826933 -0.02680000 0.86666667 0.96078431 1.00000000
v 1.66621282 0.95400986 0.11880000 0.86666667 0.96078431 1.00000000
v 1.66621282 0.95400986 -0.05280000 0.86666667 0.96078431 1.00000000
f 620 621 623
f 620 623 622
f 620 622 624
f 620 624 621
f 621 624 622
f 621 622 623

o geometry_47
v 0.83422537 2.02488717 0.06500000 0.61960784 0.86274510 1.00000000
v 0.62597058 1.81866897 -0.03400000 0.61960784 0.86274510 1.00000000
v 0.83678075 1.73181811 -0.03400000 0.61960784 0.86274510 1.00000000
v 0.73137566 1.77524354 0.13400000 0.61960784 0.86274510 1.00000000
v 0.73137566 1.77524354 -0.06400000 0.61960784 0.86274510 1.00000000
f 625 626 628
f 625 628 627
f 625 627 629
f 625 629 626
f 626 629 627
f 626 627 628

o geometry_48
v -0.48121404 2.06260928 0.05300000 0.86666667 0.96078431 1.00000000
v -0.51764168 1.85079336 -0.01960000 0.86666667 0.96078431 1.00000000
v -0.35481436 1.88878155 -0.01960000 0.86666667 0.96078431 1.00000000
v -0.43622802 1.86978745 0.10360000 0.86666667 0.96078431 1.00000000
v -0.43622802 1.86978745 -0.04160000 0.86666667 0.96078431 1.00000000
f 630 631 633
f 630 633 632
f 630 632 634
f 630 634 631
f 631 634 632
f 631 632 633

o geometry_49
v -1.65907812 1.37374517 0.05900000 0.61960784 0.86274510 1.00000000
v -1.54185516 1.14840938 -0.02680000 0.61960784 0.86274510 1.00000000
v -1.41583286 1.30060708 -0.02680000 0.61960784 0.86274510 1.00000000
v -1.47884401 1.22450823 0.11880000 0.61960784 0.86274510 1.00000000
v -1.47884401 1.22450823 -0.05280000 0.61960784 0.86274510 1.00000000
f 635 636 638
f 635 638 637
f 635 637 639
f 635 639 636
f 636 639 637
f 636 637 638

o geometry_50
v -2.18838494 -0.08409141 0.06500000 0.86666667 0.96078431 1.00000000
v -1.91420669 -0.18763990 -0.03400000 0.86666667 0.96078431 1.00000000
v -1.92296142 0.04019195 -0.03400000 0.86666667 0.96078431 1.00000000
v -1.91858405 -0.07372398 0.13400000 0.86666667 0.96078431 1.00000000
v -1.91858405 -0.07372398 -0.06400000 0.86666667 0.96078431 1.00000000
f 640 641 643
f 640 643 642
f 640 642 644
f 640 644 641
f 641 644 642
f 641 642 643

o geometry_51
v -1.73794472 -1.21056687 0.05300000 0.61960784 0.86274510 1.00000000
v -1.52769144 -1.16599649 -0.01960000 0.61960784 0.86274510 1.00000000
v -1.62325649 -1.02879897 -0.01960000 0.61960784 0.86274510 1.00000000
v -1.57547397 -1.09739773 0.10360000 0.61960784 0.86274510 1.00000000
v -1.57547397 -1.09739773 -0.04160000 0.61960784 0.86274510 1.00000000
f 645 646 648
f 645 648 647
f 645 647 649
f 645 649 646
f 646 649 647
f 646 647 648

o geometry_52
v -0.34825057 -2.12566167 0.05900000 0.86666667 0.96078431 1.00000000
v -0.21291816 -1.91071382 -0.02680000 0.86666667 0.96078431 1.00000000
v -0.40791851 -1.87876660 -0.02680000 0.86666667 0.96078431 1.00000000
v -0.31041834 -1.89474021 0.11880000 0.86666667 0.96078431 1.00000000
v -0.31041834 -1.89474021 -0.05280000 0.86666667 0.96078431 1.00000000
f 650 651 653
f 650 653 652
f 650 652 654
f 650 654 651
f 651 654 652
f 651 652 653

o geometry_53
v 1.12146720 -1.88106654 0.06500000 0.61960784 0.86274510 1.00000000
v 1.08112265 -1.59077648 -0.03400000 0.61960784 0.86274510 1.00000000
v 0.88528558 -1.70753197 -0.03400000 0.61960784 0.86274510 1.00000000
v 0.98320412 -1.64915423 0.13400000 0.61960784 0.86274510 1.00000000
v 0.98320412 -1.64915423 -0.06400000 0.61960784 0.86274510 1.00000000
f 655 656 658
f 655 658 657
f 655 657 659
f 655 659 656
f 656 659 657
f 656 657 658

o geometry_54
v 0.00000000 0.00000000 -0.24000000 0.18823529 0.22352941 0.25882353
v 0.84000000 0.00000000 -0.24000000 0.18823529 0.22352941 0.25882353
v 0.84000000 0.00000000 -0.12000000 0.18823529 0.22352941 0.25882353
v 0.00000000 0.00000000 -0.12000000 0.18823529 0.22352941 0.25882353
v 0.79888747 0.25957428 -0.24000000 0.18823529 0.22352941 0.25882353
v 0.79888747 0.25957428 -0.12000000 0.18823529 0.22352941 0.25882353
v 0.67957428 0.49373961 -0.24000000 0.18823529 0.22352941 0.25882353
v 0.67957428 0.49373961 -0.12000000 0.18823529 0.22352941 0.25882353
v 0.49373961 0.67957428 -0.24000000 0.18823529 0.22352941 0.25882353
v 0.49373961 0.67957428 -0.12000000 0.18823529 0.22352941 0.25882353
v 0.25957428 0.79888747 -0.24000000 0.18823529 0.22352941 0.25882353
v 0.25957428 0.79888747 -0.12000000 0.18823529 0.22352941 0.25882353
v 0.00000000 0.84000000 -0.24000000 0.18823529 0.22352941 0.25882353
v 0.00000000 0.84000000 -0.12000000 0.18823529 0.22352941 0.25882353
v -0.25957428 0.79888747 -0.24000000 0.18823529 0.22352941 0.25882353
v -0.25957428 0.79888747 -0.12000000 0.18823529 0.22352941 0.25882353
v -0.49373961 0.67957428 -0.24000000 0.18823529 0.22352941 0.25882353
v -0.49373961 0.67957428 -0.12000000 0.18823529 0.22352941 0.25882353
v -0.67957428 0.49373961 -0.24000000 0.18823529 0.22352941 0.25882353
v -0.67957428 0.49373961 -0.12000000 0.18823529 0.22352941 0.25882353
v -0.79888747 0.25957428 -0.24000000 0.18823529 0.22352941 0.25882353
v -0.79888747 0.25957428 -0.12000000 0.18823529 0.22352941 0.25882353
v -0.84000000 0.00000000 -0.24000000 0.18823529 0.22352941 0.25882353
v -0.84000000 0.00000000 -0.12000000 0.18823529 0.22352941 0.25882353
v -0.79888747 -0.25957428 -0.24000000 0.18823529 0.22352941 0.25882353
v -0.79888747 -0.25957428 -0.12000000 0.18823529 0.22352941 0.25882353
v -0.67957428 -0.49373961 -0.24000000 0.18823529 0.22352941 0.25882353
v -0.67957428 -0.49373961 -0.12000000 0.18823529 0.22352941 0.25882353
v -0.49373961 -0.67957428 -0.24000000 0.18823529 0.22352941 0.25882353
v -0.49373961 -0.67957428 -0.12000000 0.18823529 0.22352941 0.25882353
v -0.25957428 -0.79888747 -0.24000000 0.18823529 0.22352941 0.25882353
v -0.25957428 -0.79888747 -0.12000000 0.18823529 0.22352941 0.25882353
v -0.00000000 -0.84000000 -0.24000000 0.18823529 0.22352941 0.25882353
v -0.00000000 -0.84000000 -0.12000000 0.18823529 0.22352941 0.25882353
v 0.25957428 -0.79888747 -0.24000000 0.18823529 0.22352941 0.25882353
v 0.25957428 -0.79888747 -0.12000000 0.18823529 0.22352941 0.25882353
v 0.49373961 -0.67957428 -0.24000000 0.18823529 0.22352941 0.25882353
v 0.49373961 -0.67957428 -0.12000000 0.18823529 0.22352941 0.25882353
v 0.67957428 -0.49373961 -0.24000000 0.18823529 0.22352941 0.25882353
v 0.67957428 -0.49373961 -0.12000000 0.18823529 0.22352941 0.25882353
v 0.79888747 -0.25957428 -0.24000000 0.18823529 0.22352941 0.25882353
v 0.79888747 -0.25957428 -0.12000000 0.18823529 0.22352941 0.25882353
f 661 660 664
f 661 664 662
f 662 664 665
f 662 665 663
f 664 660 666
f 664 666 665
f 665 666 667
f 665 667 663
f 666 660 668
f 666 668 667
f 667 668 669
f 667 669 663
f 668 660 670
f 668 670 669
f 669 670 671
f 669 671 663
f 670 660 672
f 670 672 671
f 671 672 673
f 671 673 663
f 672 660 674
f 672 674 673
f 673 674 675
f 673 675 663
f 674 660 676
f 674 676 675
f 675 676 677
f 675 677 663
f 676 660 678
f 676 678 677
f 677 678 679
f 677 679 663
f 678 660 680
f 678 680 679
f 679 680 681
f 679 681 663
f 680 660 682
f 680 682 681
f 681 682 683
f 681 683 663
f 682 660 684
f 682 684 683
f 683 684 685
f 683 685 663
f 684 660 686
f 684 686 685
f 685 686 687
f 685 687 663
f 686 660 688
f 686 688 687
f 687 688 689
f 687 689 663
f 688 660 690
f 688 690 689
f 689 690 691
f 689 691 663
f 690 660 692
f 690 692 691
f 691 692 693
f 691 693 663
f 692 660 694
f 692 694 693
f 693 694 695
f 693 695 663
f 694 660 696
f 694 696 695
f 695 696 697
f 695 697 663
f 696 660 698
f 696 698 697
f 697 698 699
f 697 699 663
f 698 660 700
f 698 700 699
f 699 700 701
f 699 701 663
f 700 660 661
f 700 661 701
f 701 661 662
f 701 662 663

